<svg width="198" height="185" viewBox="0 0 198 185" fill="none" xmlns="http://www.w3.org/2000/svg">
<path d="M10.949 152.939L8.03174 152.239L10.949 152.939ZM174.657 22.5962L174.629 19.5963L174.657 22.5962ZM196.782 24.5089C197.942 23.3264 197.924 21.427 196.742 20.2665L177.47 1.35553C176.288 0.195057 174.388 0.212971 173.228 1.39554C172.067 2.57811 172.085 4.47752 173.268 5.63799L190.398 22.4477L173.588 39.5776C172.428 40.7602 172.446 42.6596 173.628 43.8201C174.811 44.9805 176.71 44.9626 177.871 43.78L196.782 24.5089ZM6.41629 184.7L13.8663 153.639L8.03174 152.239L0.58176 183.3L6.41629 184.7ZM174.685 25.5961L194.669 25.4076L194.612 19.4079L174.629 19.5963L174.685 25.5961ZM13.8663 153.639C31.7413 79.1123 98.0489 26.3189 174.685 25.5961L174.629 19.5963C95.2389 20.3451 26.549 75.0353 8.03174 152.239L13.8663 153.639Z" fill="black"/>
</svg>
